<?xml version="1.0" encoding="UTF-8" standalone="no"?>
<!-- Created with Inkscape (http://www.inkscape.org/) -->

<svg
   xmlns:dc="http://purl.org/dc/elements/1.1/"
   xmlns:cc="http://creativecommons.org/ns#"
   xmlns:rdf="http://www.w3.org/1999/02/22-rdf-syntax-ns#"
   xmlns:svg="http://www.w3.org/2000/svg"
   xmlns="http://www.w3.org/2000/svg"
   xmlns:sodipodi="http://sodipodi.sourceforge.net/DTD/sodipodi-0.dtd"
   xmlns:inkscape="http://www.inkscape.org/namespaces/inkscape"
   width="15mm"
   height="15mm"
   viewBox="0 0 15 15"
   version="1.1"
   id="svg139"
   inkscape:version="0.92.4 (5da689c313, 2019-01-14)"
   sodipodi:docname="favicon_board.svg">
  <defs
     id="defs133" />
  <sodipodi:namedview
     id="base"
     pagecolor="#ffffff"
     bordercolor="#666666"
     borderopacity="1.0"
     inkscape:pageopacity="0.0"
     inkscape:pageshadow="2"
     inkscape:zoom="7.919596"
     inkscape:cx="48.339496"
     inkscape:cy="23.412651"
     inkscape:document-units="mm"
     inkscape:current-layer="g170"
     showgrid="false"
     inkscape:window-width="1614"
     inkscape:window-height="927"
     inkscape:window-x="494"
     inkscape:window-y="343"
     inkscape:window-maximized="0" />
  <metadata
     id="metadata136">
    <rdf:RDF>
      <cc:Work
         rdf:about="">
        <dc:format>image/svg+xml</dc:format>
        <dc:type
           rdf:resource="http://purl.org/dc/dcmitype/StillImage" />
        <dc:title></dc:title>
      </cc:Work>
    </rdf:RDF>
  </metadata>
  <g
     inkscape:label="Ebene 1"
     inkscape:groupmode="layer"
     id="layer1"
     transform="translate(0,-282)">
    <g
       id="g151"
       transform="matrix(0.26458333,0,0,0.26458333,111.28152,143.36256)"
       style="fill:none;fill-rule:evenodd">
      <g
         id="g170"
         transform="translate(-0.4237749,1065.2638)">
        <path
           style="fill:#0095ff"
           inkscape:connector-curvature="0"
           d="m -375.33462,-529.7333 v 33.6 h -6.14494 c -0.35533,0 -0.64339,0.28805 -0.64339,0.64338 v 2.59016 c 0,0.35533 0.28806,0.64338 0.64339,0.64338 h 9.70385 c 0.35533,0 0.64338,-0.28805 0.64338,-0.64338 v -2.59016 -37.69092 c 0,-0.16478 -0.12388,-0.30062 -0.28359,-0.31946 -0.1027,-0.0694 -0.22651,-0.10993 -0.35979,-0.10993 h -9.70385 c -0.35533,0 -0.64339,0.28806 -0.64339,0.64339 v 2.59015 c 0,0.35533 0.28806,0.64339 0.64339,0.64339 z"
           id="path145" />
        <path
           style="fill:#072734"
           inkscape:connector-curvature="0"
           d="m -408.30806,-529.7333 v 33.6 h 6.14494 c 0.35533,0 0.64338,0.28805 0.64338,0.64338 v 2.59016 c 0,0.35533 -0.28805,0.64338 -0.64338,0.64338 h -9.70385 c -0.35533,0 -0.64339,-0.28805 -0.64339,-0.64338 v -2.59016 -37.69092 c 0,-0.16478 0.12389,-0.30062 0.2836,-0.31946 0.1027,-0.0694 0.22651,-0.10993 0.35979,-0.10993 h 9.70385 c 0.35533,0 0.64338,0.28806 0.64338,0.64339 v 2.59015 c 0,0.35533 -0.28805,0.64339 -0.64338,0.64339 z"
           id="path149" />
        <g
           id="g4611"
           transform="translate(-0.25349,-0.12581615)">
          <path
             sodipodi:nodetypes="ssccsscscsccscscsccccccccc"
             inkscape:connector-curvature="0"
             id="path149-5"
             d="m -403.60203,-525.96146 c -0.35533,0 -0.64258,0.2892 -0.64258,0.64453 v 3.67969 4.02344 3.67968 c 0,0.35533 0.28725,0.64453 0.64258,0.64453 h 2.58984 21.69141 c 0.16478,0 0.30146,-0.12349 0.32031,-0.2832 0.0694,-0.1027 0.10937,-0.22806 0.10937,-0.36133 v -3.67968 -4.02344 -3.67969 c 0,-0.13327 -0.04,-0.25667 -0.10937,-0.35937 -0.0188,-0.15971 -0.15553,-0.28516 -0.32031,-0.28516 h -21.69141 z m 3.23437,4.20312 h 17.59961 v 0.1211 4.02344 0.12109 h -17.59961 v -0.12109 -4.02344 z"
             style="fill:#072734;fill-rule:evenodd" />
          <path
             sodipodi:nodetypes="ssccsscscsccscscsccccccccc"
             inkscape:connector-curvature="0"
             id="path149-5-4"
             d="m -403.60203,-512.3254 c -0.35533,0 -0.64258,0.2892 -0.64258,0.64453 v 3.67969 4.02344 3.67968 c 0,0.35533 0.28725,0.64453 0.64258,0.64453 h 2.58984 21.69141 c 0.16478,0 0.30146,-0.12349 0.32031,-0.2832 0.0694,-0.1027 0.10937,-0.22806 0.10937,-0.36133 v -3.67968 -4.02344 -3.67969 c 0,-0.13327 -0.04,-0.25667 -0.10937,-0.35937 -0.0188,-0.15971 -0.15553,-0.28516 -0.32031,-0.28516 h -21.69141 z m 3.23437,4.20312 h 17.59961 v 0.1211 4.02344 0.12109 h -17.59961 v -0.12109 -4.02344 z"
             style="fill:#0095ff;fill-opacity:1;fill-rule:evenodd" />
        </g>
      </g>
    </g>
  </g>
</svg>
